%FSLAX45Y45*%
G04 Gerber Fmt 4.5, Leading zero omitted, Abs format (unit mm)*
G04 Created by KiCad (PCBNEW (6.0.1)) date 2022-07-08 18:52:24*
%MOMM*%
%LPD*%
G01*
G04 APERTURE LIST*
%TA.AperFunction,Profile*%
%ADD10C,0.150000*%
%TD*%
%ADD11C,0.200000*%
G04 APERTURE END LIST*
D10*
X6000000Y-1000000D02*
X6000000Y-26000000D01*
X36000000Y-1000000D02*
X6000000Y-1000000D01*
X6000000Y-26000000D02*
X36000000Y-26000000D01*
X36000000Y-1000000D02*
X36000000Y-26000000D01*
D11*
X6250119Y-26317976D02*
X6250119Y-26117976D01*
X6297738Y-26117976D01*
X6326309Y-26127500D01*
X6345357Y-26146548D01*
X6354881Y-26165595D01*
X6364405Y-26203690D01*
X6364405Y-26232262D01*
X6354881Y-26270357D01*
X6345357Y-26289405D01*
X6326309Y-26308452D01*
X6297738Y-26317976D01*
X6250119Y-26317976D01*
X6450119Y-26317976D02*
X6450119Y-26184643D01*
X6450119Y-26222738D02*
X6459643Y-26203690D01*
X6469167Y-26194167D01*
X6488214Y-26184643D01*
X6507262Y-26184643D01*
X6573928Y-26317976D02*
X6573928Y-26184643D01*
X6573928Y-26117976D02*
X6564405Y-26127500D01*
X6573928Y-26137024D01*
X6583452Y-26127500D01*
X6573928Y-26117976D01*
X6573928Y-26137024D01*
X6697738Y-26317976D02*
X6678690Y-26308452D01*
X6669167Y-26289405D01*
X6669167Y-26117976D01*
X6802500Y-26317976D02*
X6783452Y-26308452D01*
X6773928Y-26289405D01*
X6773928Y-26117976D01*
X7031071Y-26317976D02*
X7031071Y-26117976D01*
X7097738Y-26260833D01*
X7164405Y-26117976D01*
X7164405Y-26317976D01*
X7345357Y-26317976D02*
X7345357Y-26213214D01*
X7335833Y-26194167D01*
X7316786Y-26184643D01*
X7278690Y-26184643D01*
X7259643Y-26194167D01*
X7345357Y-26308452D02*
X7326309Y-26317976D01*
X7278690Y-26317976D01*
X7259643Y-26308452D01*
X7250119Y-26289405D01*
X7250119Y-26270357D01*
X7259643Y-26251309D01*
X7278690Y-26241786D01*
X7326309Y-26241786D01*
X7345357Y-26232262D01*
X7440595Y-26184643D02*
X7440595Y-26384643D01*
X7440595Y-26194167D02*
X7459643Y-26184643D01*
X7497738Y-26184643D01*
X7516786Y-26194167D01*
X7526309Y-26203690D01*
X7535833Y-26222738D01*
X7535833Y-26279881D01*
X7526309Y-26298928D01*
X7516786Y-26308452D01*
X7497738Y-26317976D01*
X7459643Y-26317976D01*
X7440595Y-26308452D01*
X7621548Y-26298928D02*
X7631071Y-26308452D01*
X7621548Y-26317976D01*
X7612024Y-26308452D01*
X7621548Y-26298928D01*
X7621548Y-26317976D01*
X7621548Y-26194167D02*
X7631071Y-26203690D01*
X7621548Y-26213214D01*
X7612024Y-26203690D01*
X7621548Y-26194167D01*
X7621548Y-26213214D01*
M02*
