M48
; DRILL file {KiCad (6.0.1)} date Fri Jul  8 18:51:58 2022
; FORMAT={-:-/ absolute / metric / decimal}
; #@! TF.CreationDate,2022-07-08T18:51:58+02:00
; #@! TF.GenerationSoftware,Kicad,Pcbnew,(6.0.1)
; #@! TF.FileFunction,Plated,1,2,PTH
FMAT,2
METRIC
; #@! TA.AperFunction,Plated,PTH,ComponentDrill
T1C0.762
; #@! TA.AperFunction,Plated,PTH,ComponentDrill
T2C0.800
; #@! TA.AperFunction,Plated,PTH,ComponentDrill
T3C0.900
; #@! TA.AperFunction,Plated,PTH,ViaDrill
T4C1.000
; #@! TA.AperFunction,Plated,PTH,ComponentDrill
T5C1.000
; #@! TA.AperFunction,Plated,PTH,ComponentDrill
T6C1.100
; #@! TA.AperFunction,Plated,PTH,ComponentDrill
T7C1.300
; #@! TA.AperFunction,Plated,PTH,ComponentDrill
T8C1.400
; #@! TA.AperFunction,Plated,PTH,ViaDrill
T9C3.000
%
G90
G05
T1
X179.966Y-159.155
X182.506Y-159.155
X185.046Y-159.155
X187.586Y-159.155
X246.77Y-244.91
X251.85Y-244.91
T2
X82.94Y-212.222
X82.94Y-214.762
X82.94Y-217.302
X82.94Y-219.843
X82.94Y-222.382
X82.94Y-224.922
X82.94Y-227.462
X82.94Y-230.002
X82.94Y-232.542
X197.51Y-133.157
X197.51Y-135.157
X197.51Y-137.157
X199.51Y-133.157
X199.51Y-135.157
X199.51Y-137.157
X211.75Y-130.705
X211.75Y-133.245
X255.66Y-41.805
X255.66Y-44.345
X255.66Y-46.885
X255.66Y-49.425
X255.66Y-51.965
X255.66Y-54.505
X255.66Y-57.045
X255.66Y-59.585
X255.66Y-62.125
X256.93Y-159.265
X256.93Y-161.805
X256.93Y-164.345
X256.93Y-166.885
X256.93Y-169.425
X256.93Y-171.965
X256.93Y-174.505
X256.93Y-177.045
X256.93Y-179.585
X317.875Y-180.235
X320.415Y-63.395
X320.415Y-180.235
X322.955Y-63.395
X322.955Y-180.235
X325.495Y-63.395
X325.495Y-180.235
X328.035Y-63.395
X328.035Y-180.235
X330.575Y-63.395
X330.575Y-180.235
X333.115Y-63.395
X333.115Y-180.235
X335.655Y-63.395
X335.655Y-180.235
X338.195Y-63.395
X338.195Y-180.235
X340.735Y-63.395
T3
X102.625Y-212.862
X102.625Y-215.403
X119.135Y-212.862
X119.135Y-215.403
X135.645Y-212.222
X135.645Y-214.762
X152.155Y-212.857
X152.155Y-215.397
X168.665Y-212.862
X168.665Y-215.403
X184.54Y-212.862
X184.54Y-215.403
X201.685Y-212.862
X201.685Y-215.403
X217.56Y-212.862
X217.56Y-215.403
X268.36Y-158.64
X268.36Y-161.18
X269.035Y-40.535
X269.035Y-43.075
X273.44Y-158.64
X273.44Y-161.18
X274.75Y-40.535
X274.75Y-43.075
X279.79Y-158.64
X279.79Y-161.18
X280.465Y-40.535
X280.465Y-43.075
X284.87Y-158.64
X284.87Y-161.18
X286.18Y-40.53
X286.18Y-43.07
X291.22Y-158.64
X291.22Y-161.18
X291.26Y-40.535
X291.26Y-43.075
X296.3Y-158.64
X296.3Y-161.18
X296.975Y-40.535
X296.975Y-43.075
X302.65Y-158.64
X302.65Y-161.18
X302.69Y-40.535
X302.69Y-43.075
X307.73Y-158.64
X307.73Y-161.18
X308.405Y-40.535
X308.405Y-43.075
X314.08Y-158.64
X314.08Y-161.18
X314.755Y-40.535
X314.755Y-43.075
X319.16Y-158.64
X319.16Y-161.18
X319.835Y-40.535
X319.835Y-43.075
X325.51Y-158.64
X325.51Y-161.18
X326.185Y-40.535
X326.185Y-43.075
X330.59Y-158.64
X330.59Y-161.18
X331.265Y-40.535
X331.265Y-43.075
X336.94Y-158.64
X336.94Y-161.18
X337.615Y-40.535
X337.615Y-43.075
X342.02Y-158.64
X342.02Y-161.18
X342.695Y-40.535
X342.695Y-43.075
X348.37Y-158.64
X348.37Y-161.18
X349.045Y-40.535
X349.045Y-43.075
X353.45Y-158.645
X353.45Y-161.185
X354.125Y-40.535
X354.125Y-43.075
T4
X88.655Y-213.255
X107.705Y-147.85
X107.705Y-151.025
X107.705Y-213.89
X110.245Y-116.1
X120.405Y-142.135
X120.405Y-145.945
X120.405Y-149.755
X123.58Y-109.75
X124.215Y-213.255
X126.755Y-112.29
X129.295Y-147.85
X131.835Y-151.025
X135.01Y-159.915
X136.28Y-145.945
X136.28Y-154.835
X138.82Y-145.945
X140.725Y-117.37
X140.725Y-213.89
X144.535Y-114.83
X145.805Y-145.945
X146.44Y-154.835
X147.075Y-112.29
X147.71Y-150.39
X148.345Y-144.675
X149.615Y-152.115
X152.79Y-152.295
X155.965Y-152.93
X157.235Y-211.985
X157.87Y-121.18
X157.87Y-142.77
X161.68Y-36.09
X161.68Y-155.47
X162.95Y-80.54
X163.585Y-182.775
X164.22Y-34.82
X164.855Y-184.68
X165.49Y-79.905
X165.49Y-121.18
X165.49Y-142.77
X166.125Y-84.35
X166.125Y-186.585
X166.76Y-34.12
X167.418Y-188.366
X168.03Y-79.27
X168.398Y-190.335
X169.3Y-33.37
X169.427Y-192.354
X170.391Y-194.505
X170.57Y-78.635
X171.564Y-196.469
X171.84Y-32.671
X172.475Y-142.77
X173.11Y-78.0
X173.11Y-121.18
X173.11Y-211.985
X174.38Y-31.971
X175.65Y-77.365
X175.65Y-155.47
X176.92Y-114.195
X177.279Y-31.272
X178.118Y-76.909
X180.73Y-121.18
X182.0Y-142.77
X185.175Y-113.56
X185.175Y-151.025
X186.445Y-142.77
X188.35Y-121.18
X188.985Y-151.025
X189.62Y-148.485
X189.62Y-211.985
X192.16Y-142.77
X195.97Y-121.18
X197.24Y-142.77
X201.685Y-142.77
X203.59Y-121.18
X203.59Y-135.15
X205.495Y-211.985
X225.18Y-213.255
X227.72Y-213.255
X230.26Y-213.255
X232.8Y-213.255
X235.34Y-213.255
X237.88Y-213.255
X240.42Y-213.255
X242.325Y-133.245
X242.96Y-213.255
X248.675Y-102.13
X248.675Y-104.67
X249.31Y-123.72
X249.31Y-125.92
X251.215Y-127.53
X252.485Y-104.67
X252.6Y-102.13
X253.12Y-125.625
X255.025Y-123.72
X268.36Y-75.46
X268.36Y-107.845
X268.36Y-192.935
X268.36Y-225.32
X270.9Y-75.46
X270.9Y-107.845
X270.9Y-192.935
X270.9Y-225.32
X273.44Y-75.46
X273.44Y-107.845
X273.44Y-192.935
X273.44Y-225.32
X275.98Y-75.46
X275.98Y-107.845
X275.98Y-192.935
X275.98Y-225.32
X278.52Y-75.46
X278.52Y-107.845
X278.52Y-192.935
X278.52Y-225.32
X281.06Y-75.46
X281.06Y-107.845
X281.06Y-192.935
X281.06Y-225.32
X283.6Y-75.46
X283.6Y-107.845
X283.6Y-192.935
X283.6Y-225.32
X284.87Y-49.425
X286.14Y-75.46
X286.14Y-107.845
X286.14Y-192.935
X286.14Y-225.32
X288.68Y-82.445
X288.68Y-114.195
X291.855Y-49.425
X293.125Y-75.46
X293.125Y-90.7
X293.125Y-192.935
X293.125Y-206.27
X294.395Y-114.195
X295.665Y-75.46
X295.665Y-88.795
X295.665Y-192.935
X295.665Y-205.0
X296.3Y-107.845
X296.3Y-225.32
X296.935Y-195.475
X298.205Y-75.46
X298.205Y-86.89
X298.205Y-192.935
X298.205Y-203.73
X298.84Y-225.32
X300.745Y-75.46
X300.745Y-84.985
X300.745Y-192.935
X300.745Y-202.46
X302.195Y-83.08
X303.285Y-75.46
X303.285Y-80.54
X303.285Y-192.935
X303.285Y-195.475
X303.285Y-200.555
X304.283Y-78.416
X305.825Y-75.46
X305.825Y-192.935
X305.825Y-198.65
X308.365Y-75.46
X308.365Y-192.935
X308.365Y-196.745
T5
X96.602Y-212.065
X96.602Y-215.815
X113.392Y-211.827
X113.392Y-215.577
X123.58Y-164.995
X123.595Y-152.905
X126.12Y-164.995
X126.135Y-152.905
X128.66Y-164.995
X128.675Y-152.905
X129.93Y-211.827
X129.93Y-215.577
X146.412Y-212.462
X146.412Y-216.212
X154.06Y-117.37
X154.06Y-145.945
X156.6Y-117.37
X156.6Y-145.945
X159.14Y-117.37
X159.14Y-145.945
X161.68Y-117.37
X161.68Y-145.945
X162.95Y-212.462
X162.95Y-216.212
X164.22Y-117.37
X164.22Y-145.945
X166.76Y-117.37
X166.76Y-145.945
X169.3Y-117.37
X169.3Y-145.945
X171.84Y-117.37
X171.84Y-145.945
X174.38Y-117.37
X174.38Y-145.945
X176.92Y-117.37
X176.92Y-145.945
X178.797Y-212.462
X178.797Y-216.212
X179.46Y-117.37
X179.46Y-145.945
X182.0Y-117.37
X182.0Y-145.945
X184.54Y-117.37
X184.54Y-145.945
X187.08Y-117.37
X187.08Y-145.945
X189.62Y-117.37
X189.62Y-145.945
X192.16Y-117.37
X192.16Y-145.945
X194.7Y-117.37
X194.7Y-145.945
X195.942Y-212.462
X195.942Y-216.212
X197.24Y-117.37
X197.24Y-145.945
X199.78Y-117.37
X199.78Y-145.945
X202.32Y-117.37
X202.32Y-145.945
X204.86Y-117.37
X204.86Y-145.945
X207.4Y-117.37
X207.4Y-145.945
X209.94Y-117.37
X209.94Y-145.945
X211.817Y-212.462
X211.817Y-216.212
X212.48Y-117.37
X212.48Y-145.945
X322.335Y-218.335
X324.875Y-218.335
X327.415Y-218.335
T6
X154.06Y-124.355
X154.06Y-139.595
X156.6Y-124.355
X156.6Y-139.595
X159.14Y-124.355
X159.14Y-139.595
X161.68Y-124.355
X161.68Y-139.595
X164.22Y-124.355
X164.22Y-139.595
X166.76Y-124.355
X166.76Y-126.895
X166.76Y-129.435
X166.76Y-131.975
X166.76Y-134.515
X166.76Y-137.055
X166.76Y-139.595
X169.3Y-124.355
X169.3Y-139.595
X171.84Y-124.355
X171.84Y-139.595
X174.38Y-124.355
X174.38Y-139.595
X176.92Y-124.355
X176.92Y-139.595
X179.46Y-124.355
X179.46Y-139.595
X182.0Y-124.355
X182.0Y-139.595
X184.54Y-124.355
X184.54Y-139.595
X187.08Y-124.355
X187.08Y-139.595
X189.62Y-124.355
X189.62Y-139.595
X192.16Y-124.355
X192.16Y-139.595
X194.7Y-124.355
X194.7Y-139.595
X196.021Y-127.406
X197.24Y-124.355
X197.24Y-139.595
X198.561Y-127.406
X199.78Y-124.355
X199.78Y-139.595
X201.101Y-127.406
X202.32Y-124.355
X202.32Y-139.595
X203.641Y-127.406
X204.86Y-124.355
X204.86Y-139.595
X206.181Y-127.406
X207.4Y-124.355
X207.4Y-139.595
X209.94Y-124.355
X209.94Y-137.055
X209.94Y-139.595
X212.48Y-124.355
X212.48Y-139.595
T7
X95.72Y-248.18
X96.602Y-227.065
X96.602Y-232.065
X96.602Y-237.065
X100.72Y-248.18
X105.72Y-248.18
X112.23Y-248.18
X113.392Y-226.827
X113.392Y-231.827
X113.392Y-236.827
X117.23Y-248.18
X122.23Y-248.18
X128.74Y-248.18
X129.93Y-226.827
X129.93Y-231.827
X129.93Y-236.827
X133.74Y-248.18
X138.74Y-248.18
X145.25Y-248.18
X146.412Y-227.462
X146.412Y-232.462
X146.412Y-237.462
X150.25Y-248.18
X155.25Y-248.18
X161.68Y-248.18
X162.95Y-227.462
X162.95Y-232.462
X162.95Y-237.462
X166.68Y-248.18
X171.68Y-248.18
X178.19Y-248.18
X178.797Y-227.462
X178.797Y-232.462
X178.797Y-237.462
X183.19Y-248.18
X188.19Y-248.18
X194.7Y-248.18
X195.942Y-227.462
X195.942Y-232.462
X195.942Y-237.462
X199.7Y-248.18
X204.7Y-248.18
X211.21Y-248.18
X211.817Y-227.462
X211.817Y-232.462
X211.817Y-237.462
X216.21Y-248.18
X221.21Y-248.18
T8
X67.74Y-20.235
X67.78Y-71.65
X70.875Y-103.52
X70.875Y-108.52
X70.875Y-113.52
X70.875Y-118.52
X70.875Y-129.555
X70.875Y-134.555
X70.875Y-139.555
X70.875Y-144.555
X70.875Y-154.956
X70.875Y-159.956
X70.875Y-164.956
X70.875Y-169.956
X70.875Y-180.315
X70.875Y-185.315
X70.875Y-190.315
X70.875Y-195.315
X72.74Y-20.235
X72.78Y-71.65
X79.17Y-20.235
X79.21Y-71.65
X84.17Y-20.235
X84.21Y-71.65
X90.6Y-20.235
X90.64Y-71.65
X95.6Y-20.235
X95.64Y-71.65
X98.18Y-103.52
X98.18Y-108.52
X98.18Y-113.52
X98.18Y-118.52
X98.18Y-129.555
X98.18Y-134.555
X98.18Y-139.555
X98.18Y-144.555
X98.18Y-154.956
X98.18Y-159.956
X98.18Y-164.956
X98.18Y-169.956
X98.2Y-180.355
X98.2Y-185.355
X98.2Y-190.355
X98.2Y-195.355
X102.03Y-20.235
X102.11Y-71.65
X107.03Y-20.235
X107.11Y-71.65
X113.46Y-20.235
X113.5Y-71.65
X118.46Y-20.235
X118.5Y-71.65
X124.89Y-20.235
X124.93Y-71.65
X129.89Y-20.235
X129.93Y-71.65
X136.32Y-20.235
X136.4Y-71.67
X141.32Y-20.235
X141.4Y-71.67
X147.195Y-71.67
X147.75Y-20.235
X152.195Y-71.67
X152.75Y-20.235
X158.625Y-71.67
X159.18Y-20.235
X163.625Y-71.67
X164.18Y-20.235
X170.055Y-71.67
X170.61Y-20.235
X175.055Y-71.67
X175.61Y-20.235
X182.04Y-20.235
X182.08Y-71.65
X187.04Y-20.235
X187.08Y-71.65
X193.47Y-20.235
X193.51Y-71.65
X198.47Y-20.235
X198.51Y-71.65
X204.9Y-20.235
X204.94Y-71.65
X209.9Y-20.235
X209.94Y-71.65
X216.33Y-20.235
X216.37Y-71.65
X221.33Y-20.235
X221.37Y-71.65
X227.76Y-20.235
X227.8Y-71.65
X232.76Y-20.235
X232.8Y-71.65
X239.07Y-20.255
X239.19Y-71.65
X244.07Y-20.255
X244.19Y-71.65
X256.97Y-138.98
X257.765Y-20.215
X261.97Y-138.98
X262.765Y-20.215
X268.4Y-138.98
X269.195Y-20.215
X273.4Y-138.98
X274.195Y-20.215
X279.83Y-138.98
X280.625Y-20.215
X284.83Y-138.98
X285.625Y-20.215
X291.18Y-138.98
X291.975Y-20.215
X296.18Y-138.98
X296.975Y-20.215
X302.61Y-138.98
X303.405Y-20.215
X307.61Y-138.98
X308.405Y-20.215
X312.77Y-246.91
X314.12Y-138.98
X314.795Y-20.215
X317.77Y-246.91
X319.12Y-138.98
X319.795Y-20.215
X322.77Y-246.91
X325.43Y-138.98
X326.225Y-20.215
X327.77Y-246.91
X330.43Y-138.98
X331.225Y-20.215
X336.86Y-138.98
X337.06Y-246.91
X337.655Y-20.215
X341.86Y-138.98
X342.06Y-246.91
X342.655Y-20.215
X347.06Y-246.91
X348.29Y-138.98
X349.085Y-20.215
X352.06Y-246.91
X353.29Y-138.98
X354.085Y-20.215
T9
X71.51Y-36.725
X71.51Y-247.545
X82.94Y-149.755
X200.415Y-169.44
X222.005Y-229.13
X225.815Y-36.09
X345.195Y-151.025
X349.64Y-232.94
X350.275Y-58.95
T0
M30
