M48
; DRILL file {KiCad 7.0.10} date Tue Aug 13 12:14:57 2024
; FORMAT={-:-/ absolute / metric / decimal}
; #@! TF.CreationDate,2024-08-13T12:14:57+02:00
; #@! TF.GenerationSoftware,Kicad,Pcbnew,7.0.10
; #@! TF.FileFunction,Plated,1,4,PTH
FMAT,2
METRIC
; #@! TA.AperFunction,Plated,PTH,ViaDrill
T1C0.400
; #@! TA.AperFunction,Plated,PTH,ComponentDrill
T2C0.762
; #@! TA.AperFunction,Plated,PTH,ViaDrill
T3C0.800
; #@! TA.AperFunction,Plated,PTH,ComponentDrill
T4C0.800
; #@! TA.AperFunction,Plated,PTH,ComponentDrill
T5C0.900
; #@! TA.AperFunction,Plated,PTH,ComponentDrill
T6C1.000
; #@! TA.AperFunction,Plated,PTH,ComponentDrill
T7C1.020
; #@! TA.AperFunction,Plated,PTH,ComponentDrill
T8C1.200
; #@! TA.AperFunction,Plated,PTH,ComponentDrill
T9C1.300
; #@! TA.AperFunction,Plated,PTH,ComponentDrill
T10C1.600
; #@! TA.AperFunction,Plated,PTH,ViaDrill
T11C3.000
%
G90
G05
T1
X84.972Y-198.594
X101.228Y-179.346
X107.832Y-206.27
X109.864Y-164.614
X110.372Y-169.694
X110.372Y-179.854
X110.372Y-184.934
X113.928Y-209.318
X115.96Y-204.238
X116.976Y-182.394
X117.992Y-75.714
X117.992Y-177.314
X118.5Y-34.058
X120.532Y-75.714
X121.04Y-34.058
X121.04Y-206.778
X122.564Y-43.71
X122.564Y-83.334
X123.072Y-75.714
X123.58Y-34.058
X124.596Y-82.826
X125.104Y-43.71
X125.612Y-75.714
X126.12Y-34.058
X127.136Y-82.826
X127.644Y-43.71
X128.152Y-75.714
X128.66Y-34.058
X129.676Y-82.826
X130.184Y-43.71
X130.692Y-75.714
X131.2Y-34.058
X132.216Y-82.826
X133.232Y-43.71
X133.232Y-75.714
X133.232Y-95.526
X133.232Y-179.854
X133.232Y-184.934
X133.232Y-204.746
X133.74Y-34.058
X135.772Y-99.59
X136.788Y-208.302
X138.312Y-77.746
X139.328Y-182.394
X139.836Y-69.618
X139.836Y-177.314
X140.344Y-38.122
X140.852Y-69.11
X140.852Y-77.746
X141.868Y-68.602
X141.868Y-204.238
X142.376Y-38.122
X142.884Y-29.486
X142.884Y-68.094
X143.9Y-28.978
X143.9Y-67.586
X144.916Y-28.47
X144.916Y-67.078
X145.932Y-27.962
X145.932Y-66.57
X145.932Y-84.858
X146.186Y-46.25
X146.948Y-27.454
X147.964Y-26.946
X148.472Y-84.858
X148.472Y-154.962
X148.472Y-206.778
X148.726Y-46.25
X148.98Y-26.438
X149.488Y-155.978
X150.01Y-154.449
X152.028Y-141.246
X152.753Y-141.953
X153.044Y-129.562
X153.044Y-131.086
X153.552Y-142.77
X154.06Y-117.37
X154.568Y-132.102
X154.568Y-143.786
X155.076Y-73.682
X155.584Y-144.802
X156.092Y-131.086
X156.239Y-145.557
X157.616Y-139.722
X158.341Y-140.447
X158.627Y-147.845
X159.066Y-141.172
X159.791Y-141.879
X160.481Y-142.603
X161.213Y-143.284
X161.68Y-151.914
X161.938Y-144.015
X162.696Y-144.802
X162.696Y-152.93
X166.76Y-148.866
X166.76Y-151.406
X166.76Y-153.946
X169.808Y-99.59
X172.348Y-99.59
X177.428Y-134.134
X178.444Y-172.742
X179.968Y-101.114
X179.968Y-128.546
X179.968Y-164.106
X182.508Y-101.114
X182.508Y-134.134
X182.508Y-164.106
X183.524Y-172.742
X185.048Y-101.114
X185.048Y-127.53
X185.048Y-164.106
X187.588Y-101.114
X187.588Y-134.134
X187.588Y-164.106
X190.128Y-164.106
X192.668Y-101.622
X195.208Y-101.622
X195.208Y-126.514
X197.748Y-101.622
X197.748Y-122.45
X198.764Y-77.746
X200.288Y-78.762
X200.288Y-101.114
X200.288Y-127.53
X202.828Y-99.59
X202.828Y-130.578
X204.86Y-173.25
X205.368Y-100.606
X205.368Y-104.67
X205.368Y-127.53
X206.384Y-159.026
X207.4Y-173.25
X207.908Y-95.526
X207.908Y-130.578
X207.908Y-132.864
X208.416Y-79.27
X208.924Y-82.318
X208.924Y-159.026
X209.432Y-114.322
X209.432Y-116.354
X209.94Y-173.25
X210.448Y-89.938
X210.448Y-120.926
X211.464Y-159.026
X212.48Y-173.25
X212.988Y-95.526
X212.988Y-121.434
X214.004Y-159.026
X215.02Y-173.25
X215.528Y-89.938
X215.528Y-122.45
X216.544Y-159.026
X217.56Y-173.25
X218.068Y-111.274
X218.068Y-113.306
X218.068Y-115.338
X218.068Y-123.974
X219.084Y-159.026
X220.1Y-173.25
X221.624Y-116.354
X221.624Y-159.026
X222.132Y-86.89
X222.137Y-114.327
X222.64Y-173.25
X224.741Y-112.359
X226.011Y-111.089
X226.022Y-35.63
X226.196Y-207.286
X226.704Y-39.646
X227.212Y-34.81
X227.72Y-33.794
X228.736Y-207.286
X230.245Y-107.063
X232.292Y-166.646
X233.308Y-155.978
X234.832Y-172.234
X235.848Y-156.994
X237.372Y-166.646
X239.912Y-172.234
X242.452Y-166.646
X245.246Y-172.234
X246.268Y-144.294
X246.268Y-145.818
X247.284Y-70.634
X247.284Y-72.666
X247.532Y-166.646
X248.808Y-144.294
X248.808Y-146.326
X249.824Y-70.634
X249.824Y-73.174
X250.326Y-172.234
X251.348Y-144.294
X251.348Y-146.834
X252.364Y-70.634
X252.364Y-73.682
X253.888Y-144.294
X253.888Y-147.342
X254.904Y-70.634
X254.904Y-74.19
X256.428Y-144.294
X256.428Y-147.85
X257.444Y-70.634
X257.444Y-74.698
X258.968Y-144.294
X258.968Y-148.358
X259.984Y-70.634
X259.984Y-75.206
X261.508Y-144.294
X261.508Y-148.866
X262.524Y-70.634
X262.524Y-75.714
X264.048Y-144.294
X264.048Y-149.374
X265.064Y-70.634
X265.064Y-76.222
X266.588Y-144.294
X271.16Y-133.118
X271.16Y-134.642
X272.176Y-59.458
X272.176Y-63.522
X273.7Y-133.118
X273.7Y-135.15
X274.716Y-59.458
X274.716Y-64.03
X276.24Y-133.118
X276.24Y-135.658
X277.256Y-59.458
X277.256Y-64.538
X278.272Y-72.666
X278.78Y-133.118
X278.78Y-136.166
X279.796Y-59.458
X279.796Y-65.046
X281.32Y-133.118
X281.32Y-136.674
X282.336Y-59.458
X282.336Y-65.554
X283.86Y-133.118
X283.86Y-137.182
X284.368Y-72.158
X284.876Y-59.458
X284.876Y-66.062
X286.4Y-133.118
X286.4Y-137.69
X287.416Y-59.458
X287.416Y-66.57
X288.94Y-133.118
X288.94Y-138.198
X288.94Y-147.342
X289.956Y-59.458
X289.961Y-67.083
X290.464Y-73.682
X294.274Y-143.278
X296.036Y-147.342
X297.068Y-133.118
X297.576Y-59.458
X297.576Y-73.682
X299.1Y-143.786
X299.608Y-69.618
X299.608Y-132.102
X301.64Y-143.786
X302.148Y-69.618
X302.656Y-59.458
X303.412Y-73.174
X304.18Y-133.118
X304.18Y-140.23
X306.212Y-51.33
X306.72Y-131.594
X310.784Y-51.33
X330.088Y-143.278
X337.448Y-59.966
X341.512Y-164.614
X345.576Y-164.614
T2
X129.168Y-143.786
X134.248Y-143.786
T3
X246.268Y-132.61
X247.03Y-58.189
X248.808Y-132.61
X249.549Y-58.204
X251.348Y-132.61
X252.076Y-58.189
X253.888Y-132.61
X254.646Y-58.204
X256.428Y-132.61
X257.189Y-58.265
X258.968Y-132.61
X259.763Y-58.296
X261.508Y-132.61
X262.259Y-58.281
X264.048Y-132.61
X264.813Y-58.305
X267.337Y-69.38
X294.739Y-69.418
X299.856Y-58.253
X304.953Y-58.219
X309.768Y-132.61
X309.903Y-58.005
X312.308Y-132.61
X312.469Y-58.005
X314.848Y-132.61
X314.988Y-58.005
X317.388Y-132.61
X317.531Y-58.028
X319.928Y-132.61
X320.074Y-58.074
X322.468Y-132.61
X322.594Y-58.097
X325.008Y-132.61
X325.137Y-58.143
X327.548Y-132.61
X327.726Y-58.12
X330.232Y-69.384
T4
X219.542Y-34.433
X219.542Y-36.933
X325.296Y-185.442
X327.796Y-185.442
X336.472Y-185.442
X338.972Y-185.442
X346.934Y-185.442
X349.434Y-185.442
T5
X178.725Y-178.888
X178.725Y-181.428
X190.917Y-178.888
X190.917Y-181.428
X203.109Y-178.888
X203.109Y-181.428
X215.302Y-179.137
X215.302Y-181.677
X221.438Y-29.203
X222.708Y-26.663
X223.978Y-29.203
X225.248Y-26.663
X226.518Y-29.203
X226.986Y-178.888
X226.986Y-181.428
X227.788Y-26.663
X229.058Y-29.203
X230.328Y-26.663
X239.685Y-178.888
X239.685Y-181.428
X251.877Y-178.997
X251.877Y-181.537
X257.444Y-36.086
X257.444Y-38.626
X260.584Y-104.919
X260.584Y-107.459
X262.524Y-36.086
X262.524Y-38.626
X264.07Y-178.997
X264.07Y-181.537
X265.572Y-104.919
X265.572Y-107.459
X267.604Y-36.086
X267.604Y-38.626
X270.501Y-104.885
X270.501Y-107.425
X272.684Y-36.081
X272.684Y-38.621
X275.39Y-104.919
X275.39Y-107.459
X277.764Y-36.086
X277.764Y-38.626
X280.304Y-104.919
X280.304Y-107.459
X282.844Y-36.086
X282.844Y-38.626
X285.099Y-104.929
X285.099Y-107.469
X287.924Y-36.086
X287.924Y-38.626
X289.956Y-104.919
X289.956Y-107.459
X293.004Y-36.086
X293.004Y-38.626
X294.808Y-104.929
X294.808Y-107.469
X298.084Y-36.086
X298.084Y-38.626
X299.608Y-104.919
X299.608Y-107.459
X303.164Y-36.086
X303.164Y-38.626
X304.389Y-104.932
X304.389Y-107.472
X308.244Y-36.086
X308.244Y-38.626
X309.26Y-104.919
X309.26Y-107.459
X313.324Y-36.086
X313.324Y-38.626
X314.079Y-104.91
X314.079Y-107.45
X318.404Y-36.086
X318.404Y-38.626
X318.912Y-104.919
X318.912Y-107.459
X323.484Y-36.086
X323.484Y-38.626
X323.716Y-104.893
X323.716Y-107.433
X328.477Y-36.086
X328.477Y-38.626
X328.564Y-104.919
X328.564Y-107.459
X329.518Y-154.195
X329.518Y-156.735
X333.39Y-104.924
X333.39Y-107.464
X333.557Y-36.086
X333.557Y-38.626
X339.988Y-154.195
X339.988Y-156.735
X351.164Y-154.195
X351.164Y-156.735
T6
X106.308Y-210.826
X108.848Y-210.826
X132.475Y-210.842
X135.015Y-210.842
X174.38Y-178.979
X174.38Y-182.729
X186.572Y-178.979
X186.572Y-182.729
X198.764Y-178.979
X198.764Y-182.729
X210.956Y-178.979
X210.956Y-182.729
X222.921Y-178.943
X222.921Y-182.693
X235.34Y-109.999
X235.34Y-112.539
X235.34Y-178.979
X235.34Y-182.729
X247.532Y-178.979
X247.532Y-182.729
X259.724Y-178.979
X259.724Y-182.729
X324.24Y-171.208
X329.32Y-171.218
X329.823Y-198.141
X332.363Y-198.141
X334.903Y-198.141
X334.908Y-171.208
X339.988Y-171.218
X344.047Y-198.141
X345.576Y-171.208
X346.587Y-198.141
X349.127Y-198.141
X350.656Y-171.218
T7
X219.558Y-16.933
X222.098Y-15.233
X229.668Y-16.933
X232.208Y-15.233
T8
X70.522Y-23.645
X70.748Y-63.522
X73.23Y-176.636
X73.23Y-180.136
X73.23Y-183.636
X73.23Y-187.136
X73.23Y-190.636
X73.23Y-194.136
X73.288Y-80.906
X73.288Y-84.406
X73.288Y-87.906
X73.288Y-91.406
X73.288Y-94.906
X73.288Y-98.406
X73.288Y-104.726
X73.288Y-108.226
X73.288Y-111.726
X73.288Y-115.226
X73.288Y-118.726
X73.288Y-122.226
X73.288Y-128.602
X73.288Y-132.102
X73.288Y-135.602
X73.288Y-139.102
X73.288Y-142.602
X73.288Y-146.102
X73.288Y-152.534
X73.288Y-156.034
X73.288Y-159.534
X73.288Y-163.034
X73.288Y-166.534
X73.288Y-170.034
X73.288Y-204.746
X73.288Y-208.246
X73.288Y-211.746
X74.022Y-23.645
X74.248Y-63.522
X79.158Y-23.645
X79.384Y-63.522
X82.658Y-23.645
X82.884Y-63.522
X87.794Y-23.633
X88.02Y-63.522
X91.294Y-23.633
X91.52Y-63.522
X95.64Y-81.018
X95.64Y-84.518
X95.64Y-88.018
X95.64Y-91.518
X95.64Y-95.018
X95.64Y-98.518
X95.64Y-104.782
X95.64Y-108.282
X95.64Y-111.782
X95.64Y-115.282
X95.64Y-118.782
X95.64Y-122.282
X95.64Y-128.77
X95.64Y-132.27
X95.64Y-135.77
X95.64Y-139.27
X95.64Y-142.77
X95.64Y-146.27
X95.64Y-152.534
X95.64Y-156.034
X95.64Y-159.534
X95.64Y-163.034
X95.64Y-166.534
X95.64Y-170.034
X95.64Y-176.862
X95.64Y-180.362
X95.64Y-183.862
X95.64Y-187.362
X95.64Y-190.862
X95.64Y-194.362
X96.43Y-23.645
X96.656Y-63.522
X99.93Y-23.645
X100.156Y-63.522
X105.066Y-23.645
X105.292Y-63.522
X108.566Y-23.645
X108.792Y-63.522
X113.702Y-23.645
X113.928Y-63.522
X117.202Y-23.645
X117.428Y-63.522
X122.338Y-23.645
X122.564Y-63.522
X125.838Y-23.645
X126.064Y-63.522
X130.974Y-23.645
X131.2Y-63.522
X134.474Y-23.645
X134.7Y-63.522
X139.61Y-23.645
X139.836Y-63.522
X143.11Y-23.645
X143.336Y-63.522
X148.246Y-23.645
X148.472Y-63.522
X151.746Y-23.645
X151.972Y-63.522
X156.882Y-23.645
X157.108Y-63.532
X160.382Y-23.645
X160.608Y-63.532
X165.518Y-23.645
X165.744Y-63.522
X169.018Y-23.645
X169.244Y-63.522
X172.685Y-212.665
X174.154Y-23.645
X174.38Y-63.522
X176.185Y-212.665
X177.654Y-23.645
X177.88Y-63.522
X179.685Y-212.665
X182.79Y-23.645
X183.016Y-63.522
X184.877Y-212.665
X186.29Y-23.645
X186.516Y-63.522
X188.377Y-212.665
X191.2Y-23.645
X191.652Y-63.522
X191.877Y-212.665
X194.7Y-23.645
X195.152Y-63.522
X197.07Y-212.665
X199.836Y-23.645
X200.288Y-63.522
X200.57Y-212.665
X203.336Y-23.645
X203.788Y-63.522
X204.069Y-212.665
X209.261Y-212.665
X212.761Y-212.665
X216.261Y-212.665
X221.453Y-212.665
X224.953Y-212.665
X228.453Y-212.665
X233.589Y-212.665
X237.089Y-212.665
X240.589Y-212.665
X245.252Y-24.916
X245.308Y-93.819
X245.837Y-212.665
X248.752Y-24.916
X248.808Y-93.819
X249.337Y-212.665
X252.252Y-24.916
X252.308Y-93.819
X252.837Y-212.665
X257.444Y-24.916
X257.5Y-93.819
X258.029Y-212.665
X260.944Y-24.916
X261.0Y-93.819
X261.529Y-212.665
X264.444Y-24.916
X264.5Y-93.819
X265.029Y-212.665
X269.448Y-24.893
X269.745Y-93.807
X272.48Y-212.874
X272.948Y-24.893
X273.245Y-93.807
X275.98Y-212.874
X278.046Y-24.914
X278.843Y-93.847
X279.48Y-212.874
X281.546Y-24.914
X282.343Y-93.847
X285.18Y-212.874
X286.67Y-24.881
X287.468Y-93.804
X288.68Y-212.874
X290.17Y-24.881
X290.968Y-93.804
X292.18Y-212.874
X295.318Y-24.914
X295.913Y-93.761
X297.936Y-212.874
X298.818Y-24.914
X299.413Y-93.761
X301.436Y-212.874
X303.954Y-24.914
X304.517Y-93.757
X304.936Y-212.874
X307.454Y-24.914
X308.017Y-93.757
X310.636Y-212.874
X312.59Y-24.914
X313.156Y-93.757
X314.136Y-212.874
X316.09Y-24.914
X316.656Y-93.757
X317.636Y-212.874
X321.226Y-24.914
X321.452Y-93.757
X323.224Y-212.874
X324.726Y-24.914
X324.952Y-93.757
X326.724Y-212.874
X329.851Y-93.747
X329.862Y-24.914
X330.224Y-212.874
X333.351Y-93.747
X333.362Y-24.914
X335.803Y-212.811
X339.303Y-212.811
X342.803Y-212.811
X347.826Y-23.054
X347.826Y-26.554
X347.826Y-30.054
X347.826Y-33.554
X347.826Y-37.054
X347.861Y-42.791
X347.861Y-46.291
X347.861Y-49.791
X347.861Y-53.291
X347.861Y-56.791
X347.861Y-64.127
X347.861Y-67.627
X347.861Y-71.127
X347.861Y-74.627
X347.861Y-78.127
X347.861Y-83.431
X347.861Y-86.931
X347.861Y-90.431
X347.861Y-93.931
X347.861Y-97.431
X347.861Y-125.087
X347.861Y-128.587
X347.861Y-132.087
X347.861Y-135.587
X347.861Y-139.087
X348.116Y-104.838
X348.116Y-108.338
X348.116Y-111.838
X348.116Y-115.338
X348.116Y-118.838
X350.374Y-212.874
X353.874Y-212.874
T9
X174.38Y-193.979
X174.38Y-198.979
X174.38Y-203.979
X186.572Y-193.979
X186.572Y-198.979
X186.572Y-203.979
X198.764Y-193.979
X198.764Y-198.979
X198.764Y-203.979
X210.956Y-193.979
X210.956Y-198.979
X210.956Y-203.979
X222.921Y-193.943
X222.921Y-198.943
X222.921Y-203.943
X235.34Y-193.979
X235.34Y-198.979
X235.34Y-203.979
X247.532Y-193.979
X247.532Y-198.979
X247.532Y-203.979
X259.724Y-193.979
X259.724Y-198.979
X259.724Y-203.979
T10
X218.008Y-23.363
X233.758Y-23.363
T11
X72.78Y-32.534
X81.416Y-106.138
X83.956Y-211.858
X210.956Y-20.85
X227.72Y-188.123
X233.816Y-99.59
X332.876Y-118.894
X339.48Y-203.222
X339.988Y-21.866
M30
