%TF.GenerationSoftware,KiCad,Pcbnew,7.0.10*%
%TF.CreationDate,2024-08-13T12:14:55+02:00*%
%TF.ProjectId,Platine,506c6174-696e-4652-9e6b-696361645f70,rev?*%
%TF.SameCoordinates,Original*%
%TF.FileFunction,Paste,Top*%
%TF.FilePolarity,Positive*%
%FSLAX46Y46*%
G04 Gerber Fmt 4.6, Leading zero omitted, Abs format (unit mm)*
G04 Created by KiCad (PCBNEW 7.0.10) date 2024-08-13 12:14:55*
%MOMM*%
%LPD*%
G01*
G04 APERTURE LIST*
G04 Aperture macros list*
%AMRoundRect*
0 Rectangle with rounded corners*
0 $1 Rounding radius*
0 $2 $3 $4 $5 $6 $7 $8 $9 X,Y pos of 4 corners*
0 Add a 4 corners polygon primitive as box body*
4,1,4,$2,$3,$4,$5,$6,$7,$8,$9,$2,$3,0*
0 Add four circle primitives for the rounded corners*
1,1,$1+$1,$2,$3*
1,1,$1+$1,$4,$5*
1,1,$1+$1,$6,$7*
1,1,$1+$1,$8,$9*
0 Add four rect primitives between the rounded corners*
20,1,$1+$1,$2,$3,$4,$5,0*
20,1,$1+$1,$4,$5,$6,$7,0*
20,1,$1+$1,$6,$7,$8,$9,0*
20,1,$1+$1,$8,$9,$2,$3,0*%
G04 Aperture macros list end*
%ADD10R,1.600000X4.000000*%
%ADD11R,4.000000X1.300000*%
%ADD12R,1.600000X3.340000*%
%ADD13R,1.562000X3.340000*%
%ADD14RoundRect,0.250000X0.337500X0.475000X-0.337500X0.475000X-0.337500X-0.475000X0.337500X-0.475000X0*%
%ADD15RoundRect,0.425000X-0.425000X1.575000X-0.425000X-1.575000X0.425000X-1.575000X0.425000X1.575000X0*%
%ADD16R,1.700000X4.000000*%
%ADD17RoundRect,0.237500X-0.237500X0.250000X-0.237500X-0.250000X0.237500X-0.250000X0.237500X0.250000X0*%
%ADD18R,3.000000X1.524000*%
%ADD19RoundRect,0.237500X0.250000X0.237500X-0.250000X0.237500X-0.250000X-0.237500X0.250000X-0.237500X0*%
%ADD20RoundRect,0.250000X-0.350000X-0.450000X0.350000X-0.450000X0.350000X0.450000X-0.350000X0.450000X0*%
%ADD21RoundRect,0.425000X0.425000X-1.575000X0.425000X1.575000X-0.425000X1.575000X-0.425000X-1.575000X0*%
%ADD22R,4.000000X1.700000*%
%ADD23RoundRect,0.250000X0.350000X0.450000X-0.350000X0.450000X-0.350000X-0.450000X0.350000X-0.450000X0*%
%ADD24RoundRect,0.250000X-0.337500X-0.475000X0.337500X-0.475000X0.337500X0.475000X-0.337500X0.475000X0*%
%ADD25RoundRect,0.250000X0.450000X-0.350000X0.450000X0.350000X-0.450000X0.350000X-0.450000X-0.350000X0*%
%ADD26R,1.524000X3.000000*%
%ADD27RoundRect,0.250000X0.475000X-0.337500X0.475000X0.337500X-0.475000X0.337500X-0.475000X-0.337500X0*%
G04 APERTURE END LIST*
D10*
%TO.C,U3*%
X225688000Y-100606000D03*
X223148000Y-100606000D03*
X220608000Y-100606000D03*
X218068000Y-100606000D03*
X215528000Y-100606000D03*
X212988000Y-100606000D03*
X210448000Y-100606000D03*
X207908000Y-100606000D03*
X205368000Y-100606000D03*
X202828000Y-100606000D03*
X200288000Y-100606000D03*
X197748000Y-100606000D03*
X195208000Y-100606000D03*
X192668000Y-100606000D03*
X190128000Y-100606000D03*
X187588000Y-100606000D03*
X185048000Y-100606000D03*
X182508000Y-100606000D03*
X179968000Y-100606000D03*
X177428000Y-100606000D03*
X174888000Y-100606000D03*
X172348000Y-100606000D03*
X169808000Y-100606000D03*
X167268000Y-100606000D03*
X167268000Y-121434000D03*
X169808000Y-121434000D03*
X172348000Y-121434000D03*
X174888000Y-121434000D03*
X177428000Y-121434000D03*
X179968000Y-121434000D03*
X182508000Y-121434000D03*
X185048000Y-121434000D03*
X187588000Y-121434000D03*
X190128000Y-121434000D03*
X192668000Y-121434000D03*
X195208000Y-121434000D03*
X197748000Y-121434000D03*
X200288000Y-121434000D03*
X202828000Y-121434000D03*
X205368000Y-121434000D03*
X207908000Y-121434000D03*
X210448000Y-121434000D03*
X212988000Y-121434000D03*
X215528000Y-121434000D03*
X218068000Y-121434000D03*
X220608000Y-121434000D03*
X223148000Y-121434000D03*
X225688000Y-121434000D03*
D11*
X215274000Y-116201600D03*
X215293939Y-114203109D03*
X215313506Y-112207266D03*
X208112818Y-112156575D03*
X208099773Y-114217642D03*
X208112818Y-116179384D03*
%TD*%
D12*
%TO.C,U6*%
X271922001Y-69365000D03*
D13*
X274462001Y-69365000D03*
X277002001Y-69365000D03*
X279542001Y-69365000D03*
X282082001Y-69365000D03*
X284622001Y-69365000D03*
X287162001Y-69365000D03*
X289702001Y-69365000D03*
D12*
X292242001Y-69365000D03*
X294782001Y-69365000D03*
D13*
X297322001Y-69365000D03*
X299862001Y-69365000D03*
D12*
X302402001Y-69365000D03*
D13*
X304942001Y-69365000D03*
X304942001Y-58189000D03*
D12*
X302402001Y-58189000D03*
X299862001Y-58189000D03*
D13*
X297322001Y-58189000D03*
X294782001Y-58189000D03*
D12*
X292242001Y-58189000D03*
D13*
X289702001Y-58189000D03*
D12*
X287162001Y-58189000D03*
D13*
X284622001Y-58189000D03*
X282082001Y-58189000D03*
X279542001Y-58189000D03*
D12*
X277002001Y-58189000D03*
X274462001Y-58189000D03*
D13*
X271922001Y-58189000D03*
%TD*%
D14*
%TO.C,C8*%
X290993501Y-147342000D03*
X288918501Y-147342000D03*
%TD*%
D12*
%TO.C,U12*%
X309514001Y-143278000D03*
D13*
X312054001Y-143278000D03*
X314594001Y-143278000D03*
X317134001Y-143278000D03*
X319674001Y-143278000D03*
X322214001Y-143278000D03*
X324754001Y-143278000D03*
X327294001Y-143278000D03*
D12*
X329834001Y-143278000D03*
X329834001Y-132102000D03*
D13*
X327294001Y-132102000D03*
X324754001Y-132102000D03*
D12*
X322214001Y-132102000D03*
D13*
X319674001Y-132102000D03*
X317134001Y-132102000D03*
D12*
X314594001Y-132102000D03*
X312054001Y-132102000D03*
D13*
X309514001Y-132102000D03*
%TD*%
D15*
%TO.C,J7*%
X225688000Y-90192000D03*
D16*
X223148000Y-95780000D03*
X220608000Y-90192000D03*
X218068000Y-95780000D03*
X215528000Y-90192000D03*
X212988000Y-95780000D03*
X210448000Y-90192000D03*
X207908000Y-95780000D03*
X205368000Y-90192000D03*
X202828000Y-95780000D03*
X200288000Y-90192000D03*
X197748000Y-95780000D03*
X195208000Y-90192000D03*
X192668000Y-95780000D03*
X190128000Y-90192000D03*
X187588000Y-95780000D03*
X185048000Y-90192000D03*
X182508000Y-95780000D03*
X179968000Y-90192000D03*
X177428000Y-95780000D03*
X174888000Y-90192000D03*
X172348000Y-95780000D03*
X169808000Y-90192000D03*
X167268000Y-95780000D03*
%TD*%
D17*
%TO.C,R11*%
X339988000Y-161566000D03*
X339988000Y-159741000D03*
%TD*%
D18*
%TO.C,J92*%
X177936000Y-153946000D03*
X177936000Y-151406000D03*
X177936000Y-148866000D03*
X166760000Y-148866000D03*
X166760000Y-151406000D03*
X166760000Y-153946000D03*
%TD*%
D15*
%TO.C,J2*%
X193800000Y-167027000D03*
D16*
X191260000Y-172615000D03*
X188720000Y-167027000D03*
X186180000Y-172615000D03*
X183640000Y-167027000D03*
X181100000Y-172615000D03*
X178560000Y-167027000D03*
X176020000Y-172615000D03*
X173480000Y-167027000D03*
%TD*%
D12*
%TO.C,U10*%
X271414001Y-143278000D03*
D13*
X273954001Y-143278000D03*
X276494001Y-143278000D03*
X279034001Y-143278000D03*
X281574001Y-143278000D03*
X284114001Y-143278000D03*
X286654001Y-143278000D03*
X289194001Y-143278000D03*
D12*
X291734001Y-143278000D03*
X294274001Y-143278000D03*
D13*
X296814001Y-143278000D03*
X299354001Y-143278000D03*
D12*
X301894001Y-143278000D03*
D13*
X304434001Y-143278000D03*
X304434001Y-132102000D03*
D12*
X301894001Y-132102000D03*
X299354001Y-132102000D03*
D13*
X296814001Y-132102000D03*
X294274001Y-132102000D03*
D12*
X291734001Y-132102000D03*
D13*
X289194001Y-132102000D03*
D12*
X286654001Y-132102000D03*
D13*
X284114001Y-132102000D03*
X281574001Y-132102000D03*
X279034001Y-132102000D03*
D12*
X276494001Y-132102000D03*
X273954001Y-132102000D03*
D13*
X271414001Y-132102000D03*
%TD*%
D12*
%TO.C,U9*%
X246268001Y-143278000D03*
D13*
X248808001Y-143278000D03*
X251348001Y-143278000D03*
X253888001Y-143278000D03*
X256428001Y-143278000D03*
X258968001Y-143278000D03*
X261508001Y-143278000D03*
X264048001Y-143278000D03*
D12*
X266588001Y-143278000D03*
X266588001Y-132102000D03*
D13*
X264048001Y-132102000D03*
X261508001Y-132102000D03*
D12*
X258968001Y-132102000D03*
D13*
X256428001Y-132102000D03*
X253888001Y-132102000D03*
D12*
X251348001Y-132102000D03*
X248808001Y-132102000D03*
D13*
X246268001Y-132102000D03*
%TD*%
D12*
%TO.C,U7*%
X118246000Y-46250000D03*
D13*
X120786000Y-46250000D03*
X123326000Y-46250000D03*
X125866000Y-46250000D03*
X128406000Y-46250000D03*
X130946000Y-46250000D03*
X133486000Y-46250000D03*
X136026000Y-46250000D03*
D12*
X138566000Y-46250000D03*
X141106000Y-46250000D03*
D13*
X143646000Y-46250000D03*
X146186000Y-46250000D03*
D12*
X148726000Y-46250000D03*
D13*
X151266000Y-46250000D03*
X151266000Y-35074000D03*
D12*
X148726000Y-35074000D03*
X146186000Y-35074000D03*
D13*
X143646000Y-35074000D03*
X141106000Y-35074000D03*
D12*
X138566000Y-35074000D03*
D13*
X136026000Y-35074000D03*
D12*
X133486000Y-35074000D03*
D13*
X130946000Y-35074000D03*
X128406000Y-35074000D03*
X125866000Y-35074000D03*
D12*
X123326000Y-35074000D03*
X120786000Y-35074000D03*
D13*
X118246000Y-35074000D03*
%TD*%
D19*
%TO.C,R7*%
X135075403Y-206270000D03*
X133250403Y-206270000D03*
%TD*%
D12*
%TO.C,U11*%
X117738000Y-85874000D03*
D13*
X120278000Y-85874000D03*
X122818000Y-85874000D03*
X125358000Y-85874000D03*
X127898000Y-85874000D03*
X130438000Y-85874000D03*
X132978000Y-85874000D03*
X135518000Y-85874000D03*
D12*
X138058000Y-85874000D03*
X140598000Y-85874000D03*
D13*
X143138000Y-85874000D03*
X145678000Y-85874000D03*
D12*
X148218000Y-85874000D03*
D13*
X150758000Y-85874000D03*
X150758000Y-74698000D03*
D12*
X148218000Y-74698000D03*
X145678000Y-74698000D03*
D13*
X143138000Y-74698000D03*
X140598000Y-74698000D03*
D12*
X138058000Y-74698000D03*
D13*
X135518000Y-74698000D03*
D12*
X132978000Y-74698000D03*
D13*
X130438000Y-74698000D03*
X127898000Y-74698000D03*
X125358000Y-74698000D03*
D12*
X122818000Y-74698000D03*
X120278000Y-74698000D03*
D13*
X117738000Y-74698000D03*
%TD*%
D17*
%TO.C,R9*%
X329320000Y-159637500D03*
X329320000Y-161462500D03*
%TD*%
D12*
%TO.C,U8*%
X309910501Y-69365000D03*
D13*
X312450501Y-69365000D03*
X314990501Y-69365000D03*
X317530501Y-69365000D03*
X320070501Y-69365000D03*
X322610501Y-69365000D03*
X325150501Y-69365000D03*
X327690501Y-69365000D03*
D12*
X330230501Y-69365000D03*
X330230501Y-58189000D03*
D13*
X327690501Y-58189000D03*
X325150501Y-58189000D03*
D12*
X322610501Y-58189000D03*
D13*
X320070501Y-58189000D03*
X317530501Y-58189000D03*
D12*
X314990501Y-58189000D03*
X312450501Y-58189000D03*
D13*
X309910501Y-58189000D03*
%TD*%
D20*
%TO.C,R5*%
X294036001Y-147342000D03*
X296036001Y-147342000D03*
%TD*%
D12*
%TO.C,U4*%
X205368000Y-155978000D03*
D13*
X207908000Y-155978000D03*
X210448000Y-155978000D03*
X212988000Y-155978000D03*
X215528000Y-155978000D03*
X218068000Y-155978000D03*
X220608000Y-155978000D03*
X223148000Y-155978000D03*
D12*
X225688000Y-155978000D03*
X228228000Y-155978000D03*
D13*
X230768000Y-155978000D03*
X233308000Y-155978000D03*
D12*
X235848000Y-155978000D03*
D13*
X238388000Y-155978000D03*
X238388000Y-144802000D03*
D12*
X235848000Y-144802000D03*
X233308000Y-144802000D03*
D13*
X230768000Y-144802000D03*
X228228000Y-144802000D03*
D12*
X225688000Y-144802000D03*
D13*
X223148000Y-144802000D03*
D12*
X220608000Y-144802000D03*
D13*
X218068000Y-144802000D03*
X215528000Y-144802000D03*
X212988000Y-144802000D03*
D12*
X210448000Y-144802000D03*
X207908000Y-144802000D03*
D13*
X205368000Y-144802000D03*
%TD*%
D21*
%TO.C,RN1*%
X265064001Y-51585000D03*
D16*
X267604001Y-45997000D03*
X270144001Y-51585000D03*
X272684001Y-45997000D03*
X275224001Y-51585000D03*
X277764001Y-45997000D03*
X280304001Y-51585000D03*
X282844001Y-45997000D03*
X285384001Y-51585000D03*
%TD*%
D22*
%TO.C,J83*%
X140852000Y-199132711D03*
X147456000Y-201672711D03*
X140852000Y-204212711D03*
X147534452Y-206768401D03*
X140766903Y-209300463D03*
X147545158Y-211858000D03*
%TD*%
D21*
%TO.C,RN4*%
X297068001Y-122958000D03*
D16*
X299608001Y-117370000D03*
X302148001Y-122958000D03*
X304688001Y-117370000D03*
X307228001Y-122958000D03*
X309768001Y-117370000D03*
X312308001Y-122958000D03*
X314848001Y-117370000D03*
X317388001Y-122958000D03*
%TD*%
D14*
%TO.C,C6*%
X292496001Y-73682000D03*
X290421001Y-73682000D03*
%TD*%
D22*
%TO.C,J82*%
X115198000Y-199142310D03*
X121802000Y-201682310D03*
X115198000Y-204222310D03*
X121880452Y-206778000D03*
X115112903Y-209310062D03*
X121891158Y-211867599D03*
%TD*%
D23*
%TO.C,R8*%
X233308000Y-140230000D03*
X231308000Y-140230000D03*
%TD*%
D21*
%TO.C,RN3*%
X267096001Y-122958000D03*
D16*
X269636001Y-117370000D03*
X272176001Y-122958000D03*
X274716001Y-117370000D03*
X277256001Y-122958000D03*
X279796001Y-117370000D03*
X282336001Y-122958000D03*
X284876001Y-117370000D03*
X287416001Y-122958000D03*
%TD*%
D21*
%TO.C,RN5*%
X230006000Y-172234000D03*
D16*
X232546000Y-166646000D03*
X235086000Y-172234000D03*
X237626000Y-166646000D03*
X240166000Y-172234000D03*
X242706000Y-166646000D03*
X245246000Y-172234000D03*
X247786000Y-166646000D03*
X250326000Y-172234000D03*
%TD*%
D22*
%TO.C,J86*%
X133317097Y-164606248D03*
X139921097Y-167146248D03*
X133317097Y-169686248D03*
X139999549Y-172241938D03*
X133232000Y-174774000D03*
X140010255Y-177331537D03*
X133317097Y-179846248D03*
X140010255Y-182386248D03*
X133317097Y-184926248D03*
%TD*%
D12*
%TO.C,U13*%
X222894000Y-162074000D03*
D13*
X220354000Y-162074000D03*
X217814000Y-162074000D03*
X215274000Y-162074000D03*
X212734000Y-162074000D03*
X210194000Y-162074000D03*
X207654000Y-162074000D03*
X205114000Y-162074000D03*
D12*
X202574000Y-162074000D03*
X202574000Y-173250000D03*
D13*
X205114000Y-173250000D03*
X207654000Y-173250000D03*
D12*
X210194000Y-173250000D03*
D13*
X212734000Y-173250000D03*
X215274000Y-173250000D03*
D12*
X217814000Y-173250000D03*
X220354000Y-173250000D03*
D13*
X222894000Y-173250000D03*
%TD*%
D24*
%TO.C,C5*%
X138777000Y-50314000D03*
X140852000Y-50314000D03*
%TD*%
D22*
%TO.C,J96*%
X110372000Y-164614000D03*
X116976000Y-167154000D03*
X110372000Y-169694000D03*
X117054452Y-172249690D03*
X110286903Y-174781752D03*
X117065158Y-177339289D03*
X110372000Y-179854000D03*
X117065158Y-182394000D03*
X110372000Y-184934000D03*
%TD*%
D24*
%TO.C,C7*%
X138290500Y-89938000D03*
X140365500Y-89938000D03*
%TD*%
D15*
%TO.C,J8*%
X225688000Y-127276000D03*
D16*
X223148000Y-132864000D03*
X220608000Y-127276000D03*
X218068000Y-132864000D03*
X215528000Y-127276000D03*
X212988000Y-132864000D03*
X210448000Y-127276000D03*
X207908000Y-132864000D03*
X205368000Y-127276000D03*
X202828000Y-132864000D03*
X200288000Y-127276000D03*
X197748000Y-132864000D03*
X195208000Y-127276000D03*
X192668000Y-132864000D03*
X190128000Y-127276000D03*
X187588000Y-132864000D03*
X185048000Y-127276000D03*
X182508000Y-132864000D03*
X179968000Y-127276000D03*
X177428000Y-132864000D03*
X174888000Y-127276000D03*
X172348000Y-132864000D03*
X169808000Y-127276000D03*
X167268000Y-132864000D03*
%TD*%
D25*
%TO.C,R3*%
X156600000Y-42154000D03*
X156600000Y-40154000D03*
%TD*%
%TO.C,R6*%
X156600000Y-81778000D03*
X156600000Y-79778000D03*
%TD*%
D17*
%TO.C,R10*%
X351164000Y-159637500D03*
X351164000Y-161462500D03*
%TD*%
D20*
%TO.C,R4*%
X295036001Y-73682000D03*
X297036001Y-73682000D03*
%TD*%
D21*
%TO.C,RN2*%
X293512001Y-51585000D03*
D16*
X296052001Y-45997000D03*
X298592001Y-51585000D03*
X301132001Y-45997000D03*
X303672001Y-51585000D03*
X306212001Y-45997000D03*
X308752001Y-51585000D03*
X311292001Y-45997000D03*
X313832001Y-51585000D03*
%TD*%
D12*
%TO.C,U5*%
X247030001Y-69365000D03*
D13*
X249570001Y-69365000D03*
X252110001Y-69365000D03*
X254650001Y-69365000D03*
X257190001Y-69365000D03*
X259730001Y-69365000D03*
X262270001Y-69365000D03*
X264810001Y-69365000D03*
D12*
X267350001Y-69365000D03*
X267350001Y-58189000D03*
D13*
X264810001Y-58189000D03*
X262270001Y-58189000D03*
D12*
X259730001Y-58189000D03*
D13*
X257190001Y-58189000D03*
X254650001Y-58189000D03*
D12*
X252110001Y-58189000D03*
X249570001Y-58189000D03*
D13*
X247030001Y-58189000D03*
%TD*%
D26*
%TO.C,J3*%
X128152000Y-95526000D03*
X130692000Y-99590000D03*
X133232000Y-95526000D03*
X135772000Y-99590000D03*
%TD*%
D27*
%TO.C,C3*%
X229752000Y-119953000D03*
X229752000Y-117878000D03*
%TD*%
D19*
%TO.C,R1*%
X109760500Y-206254310D03*
X107935500Y-206254310D03*
%TD*%
D24*
%TO.C,C1*%
X235848000Y-140230000D03*
X237923000Y-140230000D03*
%TD*%
M02*
