%TF.GenerationSoftware,KiCad,Pcbnew,(6.0.1)*%
%TF.CreationDate,2022-07-08T23:34:12+02:00*%
%TF.ProjectId,Platine,506c6174-696e-4652-9e6b-696361645f70,rev?*%
%TF.SameCoordinates,Original*%
%TF.FileFunction,Soldermask,Bot*%
%TF.FilePolarity,Negative*%
%FSLAX46Y46*%
G04 Gerber Fmt 4.6, Leading zero omitted, Abs format (unit mm)*
G04 Created by KiCad (PCBNEW (6.0.1)) date 2022-07-08 23:34:12*
%MOMM*%
%LPD*%
G01*
G04 APERTURE LIST*
%ADD10R,2.800000X2.800000*%
%ADD11C,2.800000*%
%ADD12R,2.500000X2.500000*%
%ADD13C,2.500000*%
%ADD14R,1.700000X1.700000*%
%ADD15O,1.700000X1.700000*%
%ADD16R,1.800000X1.800000*%
%ADD17C,1.800000*%
%ADD18C,2.400000*%
%ADD19R,2.000000X2.000000*%
%ADD20C,2.000000*%
%ADD21R,1.600000X1.600000*%
%ADD22O,1.600000X1.600000*%
%ADD23C,1.524000*%
%ADD24C,1.600000*%
%ADD25R,1.300000X1.300000*%
%ADD26C,1.300000*%
G04 APERTURE END LIST*
D10*
%TO.C,J1*%
X312770000Y-246910000D03*
D11*
X317770000Y-246910000D03*
X322770000Y-246910000D03*
X327770000Y-246910000D03*
%TD*%
D10*
%TO.C,J5*%
X70875000Y-103520000D03*
D11*
X70875000Y-108520000D03*
X70875000Y-113520000D03*
X70875000Y-118520000D03*
%TD*%
D10*
%TO.C,J7*%
X70875000Y-129555000D03*
D11*
X70875000Y-134555000D03*
X70875000Y-139555000D03*
X70875000Y-144555000D03*
%TD*%
D10*
%TO.C,J16*%
X72740000Y-20235000D03*
D11*
X67740000Y-20235000D03*
%TD*%
D10*
%TO.C,J17*%
X84170000Y-20235000D03*
D11*
X79170000Y-20235000D03*
%TD*%
D10*
%TO.C,J18*%
X95600000Y-20235000D03*
D11*
X90600000Y-20235000D03*
%TD*%
D10*
%TO.C,J19*%
X107030000Y-20235000D03*
D11*
X102030000Y-20235000D03*
%TD*%
D10*
%TO.C,J20*%
X118460000Y-20235000D03*
D11*
X113460000Y-20235000D03*
%TD*%
D10*
%TO.C,J21*%
X129890000Y-20235000D03*
D11*
X124890000Y-20235000D03*
%TD*%
D10*
%TO.C,J22*%
X141320000Y-20235000D03*
D11*
X136320000Y-20235000D03*
%TD*%
D10*
%TO.C,J23*%
X152750000Y-20235000D03*
D11*
X147750000Y-20235000D03*
%TD*%
D10*
%TO.C,J24*%
X164180000Y-20235000D03*
D11*
X159180000Y-20235000D03*
%TD*%
D10*
%TO.C,J25*%
X175610000Y-20235000D03*
D11*
X170610000Y-20235000D03*
%TD*%
D10*
%TO.C,J26*%
X187040000Y-20235000D03*
D11*
X182040000Y-20235000D03*
%TD*%
D10*
%TO.C,J27*%
X198470000Y-20235000D03*
D11*
X193470000Y-20235000D03*
%TD*%
D10*
%TO.C,J28*%
X209900000Y-20235000D03*
D11*
X204900000Y-20235000D03*
%TD*%
D10*
%TO.C,J29*%
X221330000Y-20235000D03*
D11*
X216330000Y-20235000D03*
%TD*%
D10*
%TO.C,J30*%
X232760000Y-20235000D03*
D11*
X227760000Y-20235000D03*
%TD*%
D10*
%TO.C,J31*%
X244070000Y-20255000D03*
D11*
X239070000Y-20255000D03*
%TD*%
D10*
%TO.C,J2*%
X337060000Y-246910000D03*
D11*
X342060000Y-246910000D03*
X347060000Y-246910000D03*
X352060000Y-246910000D03*
%TD*%
D10*
%TO.C,J14*%
X98200000Y-180355000D03*
D11*
X98200000Y-185355000D03*
X98200000Y-190355000D03*
X98200000Y-195355000D03*
%TD*%
D12*
%TO.C,J73*%
X211210000Y-248180000D03*
D13*
X216210000Y-248180000D03*
X221210000Y-248180000D03*
%TD*%
D12*
%TO.C,J72*%
X194700000Y-248180000D03*
D13*
X199700000Y-248180000D03*
X204700000Y-248180000D03*
%TD*%
D12*
%TO.C,J71*%
X178190000Y-248180000D03*
D13*
X183190000Y-248180000D03*
X188190000Y-248180000D03*
%TD*%
D12*
%TO.C,J70*%
X161680000Y-248180000D03*
D13*
X166680000Y-248180000D03*
X171680000Y-248180000D03*
%TD*%
D10*
%TO.C,J64*%
X341860000Y-138980000D03*
D11*
X336860000Y-138980000D03*
%TD*%
D14*
%TO.C,J3*%
X123595000Y-152905000D03*
D15*
X126135000Y-152905000D03*
X128675000Y-152905000D03*
%TD*%
D16*
%TO.C,D2*%
X274750000Y-40535000D03*
D17*
X274750000Y-43075000D03*
%TD*%
D18*
%TO.C,K1*%
X96602500Y-232065000D03*
X96602500Y-227065000D03*
X96602500Y-237065000D03*
D19*
X96602500Y-215815000D03*
D20*
X96602500Y-212065000D03*
%TD*%
D12*
%TO.C,J67*%
X112230000Y-248180000D03*
D13*
X117230000Y-248180000D03*
X122230000Y-248180000D03*
%TD*%
D16*
%TO.C,D32*%
X353450000Y-158645000D03*
D17*
X353450000Y-161185000D03*
%TD*%
D18*
%TO.C,K3*%
X129930000Y-231827500D03*
X129930000Y-226827500D03*
X129930000Y-236827500D03*
D19*
X129930000Y-215577500D03*
D20*
X129930000Y-211827500D03*
%TD*%
D10*
%TO.C,J38*%
X331225000Y-20215000D03*
D11*
X326225000Y-20215000D03*
%TD*%
D16*
%TO.C,D13*%
X337615000Y-40535000D03*
D17*
X337615000Y-43075000D03*
%TD*%
D16*
%TO.C,D27*%
X325510000Y-158640000D03*
D17*
X325510000Y-161180000D03*
%TD*%
D10*
%TO.C,J59*%
X284830000Y-138980000D03*
D11*
X279830000Y-138980000D03*
%TD*%
D10*
%TO.C,J60*%
X296180000Y-138980000D03*
D11*
X291180000Y-138980000D03*
%TD*%
D16*
%TO.C,D17*%
X268360000Y-158640000D03*
D17*
X268360000Y-161180000D03*
%TD*%
D10*
%TO.C,J43*%
X95640000Y-71650000D03*
D11*
X90640000Y-71650000D03*
%TD*%
D21*
%TO.C,RN2*%
X320415000Y-63395000D03*
D22*
X322955000Y-63395000D03*
X325495000Y-63395000D03*
X328035000Y-63395000D03*
X330575000Y-63395000D03*
X333115000Y-63395000D03*
X335655000Y-63395000D03*
X338195000Y-63395000D03*
X340735000Y-63395000D03*
%TD*%
D10*
%TO.C,J33*%
X274195000Y-20215000D03*
D11*
X269195000Y-20215000D03*
%TD*%
D10*
%TO.C,J58*%
X273400000Y-138980000D03*
D11*
X268400000Y-138980000D03*
%TD*%
D16*
%TO.C,D34*%
X119135000Y-215402500D03*
D17*
X119135000Y-212862500D03*
%TD*%
D21*
%TO.C,RN3*%
X256930000Y-159265000D03*
D22*
X256930000Y-161805000D03*
X256930000Y-164345000D03*
X256930000Y-166885000D03*
X256930000Y-169425000D03*
X256930000Y-171965000D03*
X256930000Y-174505000D03*
X256930000Y-177045000D03*
X256930000Y-179585000D03*
%TD*%
D10*
%TO.C,J39*%
X342655000Y-20215000D03*
D11*
X337655000Y-20215000D03*
%TD*%
D18*
%TO.C,K2*%
X113392500Y-231827500D03*
X113392500Y-226827500D03*
X113392500Y-236827500D03*
D19*
X113392500Y-215577500D03*
D20*
X113392500Y-211827500D03*
%TD*%
D10*
%TO.C,J34*%
X285625000Y-20215000D03*
D11*
X280625000Y-20215000D03*
%TD*%
D10*
%TO.C,J54*%
X221370000Y-71650000D03*
D11*
X216370000Y-71650000D03*
%TD*%
D16*
%TO.C,D14*%
X342695000Y-40535000D03*
D17*
X342695000Y-43075000D03*
%TD*%
D16*
%TO.C,D39*%
X201685000Y-215402500D03*
D17*
X201685000Y-212862500D03*
%TD*%
D10*
%TO.C,J48*%
X152195000Y-71670000D03*
D11*
X147195000Y-71670000D03*
%TD*%
D16*
%TO.C,D10*%
X319835000Y-40535000D03*
D17*
X319835000Y-43075000D03*
%TD*%
D10*
%TO.C,J53*%
X209940000Y-71650000D03*
D11*
X204940000Y-71650000D03*
%TD*%
D16*
%TO.C,D23*%
X302650000Y-158640000D03*
D17*
X302650000Y-161180000D03*
%TD*%
D10*
%TO.C,J35*%
X296975000Y-20215000D03*
D11*
X291975000Y-20215000D03*
%TD*%
D16*
%TO.C,D6*%
X296975000Y-40535000D03*
D17*
X296975000Y-43075000D03*
%TD*%
D16*
%TO.C,D3*%
X280465000Y-40535000D03*
D17*
X280465000Y-43075000D03*
%TD*%
D10*
%TO.C,J42*%
X84210000Y-71650000D03*
D11*
X79210000Y-71650000D03*
%TD*%
D18*
%TO.C,K7*%
X195942500Y-232462500D03*
X195942500Y-227462500D03*
X195942500Y-237462500D03*
D19*
X195942500Y-216212500D03*
D20*
X195942500Y-212462500D03*
%TD*%
D10*
%TO.C,J46*%
X129930000Y-71650000D03*
D11*
X124930000Y-71650000D03*
%TD*%
D16*
%TO.C,D35*%
X135645000Y-214762500D03*
D17*
X135645000Y-212222500D03*
%TD*%
D16*
%TO.C,D40*%
X217560000Y-215402500D03*
D17*
X217560000Y-212862500D03*
%TD*%
D10*
%TO.C,J13*%
X98180000Y-154955500D03*
D11*
X98180000Y-159955500D03*
X98180000Y-164955500D03*
X98180000Y-169955500D03*
%TD*%
D16*
%TO.C,U1*%
X327415000Y-218335000D03*
D17*
X324875000Y-218335000D03*
X322335000Y-218335000D03*
%TD*%
D10*
%TO.C,J50*%
X175055000Y-71670000D03*
D11*
X170055000Y-71670000D03*
%TD*%
D16*
%TO.C,D33*%
X102625000Y-215402500D03*
D17*
X102625000Y-212862500D03*
%TD*%
D16*
%TO.C,D21*%
X291220000Y-158640000D03*
D17*
X291220000Y-161180000D03*
%TD*%
D10*
%TO.C,J47*%
X141400000Y-71670000D03*
D11*
X136400000Y-71670000D03*
%TD*%
D10*
%TO.C,J37*%
X319795000Y-20215000D03*
D11*
X314795000Y-20215000D03*
%TD*%
D10*
%TO.C,J40*%
X354085000Y-20215000D03*
D11*
X349085000Y-20215000D03*
%TD*%
D16*
%TO.C,D15*%
X349045000Y-40535000D03*
D17*
X349045000Y-43075000D03*
%TD*%
D10*
%TO.C,J56*%
X244190000Y-71650000D03*
D11*
X239190000Y-71650000D03*
%TD*%
D10*
%TO.C,J62*%
X319120000Y-138980000D03*
D11*
X314120000Y-138980000D03*
%TD*%
D12*
%TO.C,J66*%
X95720000Y-248180000D03*
D13*
X100720000Y-248180000D03*
X105720000Y-248180000D03*
%TD*%
D18*
%TO.C,K4*%
X146412500Y-232462500D03*
X146412500Y-227462500D03*
X146412500Y-237462500D03*
D19*
X146412500Y-216212500D03*
D20*
X146412500Y-212462500D03*
%TD*%
D16*
%TO.C,D37*%
X168665000Y-215402500D03*
D17*
X168665000Y-212862500D03*
%TD*%
D23*
%TO.C,J6*%
X179966000Y-159155000D03*
X182506000Y-159155000D03*
X185046000Y-159155000D03*
X187586000Y-159155000D03*
%TD*%
D16*
%TO.C,D30*%
X342020000Y-158640000D03*
D17*
X342020000Y-161180000D03*
%TD*%
D16*
%TO.C,D28*%
X330590000Y-158640000D03*
D17*
X330590000Y-161180000D03*
%TD*%
D16*
%TO.C,D36*%
X152155000Y-215397500D03*
D17*
X152155000Y-212857500D03*
%TD*%
D16*
%TO.C,D16*%
X354125000Y-40535000D03*
D17*
X354125000Y-43075000D03*
%TD*%
D21*
%TO.C,RN1*%
X255660000Y-41805000D03*
D22*
X255660000Y-44345000D03*
X255660000Y-46885000D03*
X255660000Y-49425000D03*
X255660000Y-51965000D03*
X255660000Y-54505000D03*
X255660000Y-57045000D03*
X255660000Y-59585000D03*
X255660000Y-62125000D03*
%TD*%
D10*
%TO.C,J63*%
X330430000Y-138980000D03*
D11*
X325430000Y-138980000D03*
%TD*%
D16*
%TO.C,D9*%
X314755000Y-40535000D03*
D17*
X314755000Y-43075000D03*
%TD*%
D10*
%TO.C,J65*%
X353290000Y-138980000D03*
D11*
X348290000Y-138980000D03*
%TD*%
D10*
%TO.C,J32*%
X262765000Y-20215000D03*
D11*
X257765000Y-20215000D03*
%TD*%
D18*
%TO.C,K8*%
X211817500Y-232462500D03*
X211817500Y-227462500D03*
X211817500Y-237462500D03*
D19*
X211817500Y-216212500D03*
D20*
X211817500Y-212462500D03*
%TD*%
D18*
%TO.C,K6*%
X178797500Y-232462500D03*
X178797500Y-227462500D03*
X178797500Y-237462500D03*
D19*
X178797500Y-216212500D03*
D20*
X178797500Y-212462500D03*
%TD*%
D16*
%TO.C,D19*%
X279790000Y-158640000D03*
D17*
X279790000Y-161180000D03*
%TD*%
D21*
%TO.C,RN4*%
X317875000Y-180235000D03*
D22*
X320415000Y-180235000D03*
X322955000Y-180235000D03*
X325495000Y-180235000D03*
X328035000Y-180235000D03*
X330575000Y-180235000D03*
X333115000Y-180235000D03*
X335655000Y-180235000D03*
X338195000Y-180235000D03*
%TD*%
D21*
%TO.C,RN5*%
X82940000Y-212222500D03*
D22*
X82940000Y-214762500D03*
X82940000Y-217302500D03*
X82940000Y-219842500D03*
X82940000Y-222382500D03*
X82940000Y-224922500D03*
X82940000Y-227462500D03*
X82940000Y-230002500D03*
X82940000Y-232542500D03*
%TD*%
D16*
%TO.C,D26*%
X319160000Y-158640000D03*
D17*
X319160000Y-161180000D03*
%TD*%
D21*
%TO.C,U2*%
X212480000Y-124355000D03*
D24*
X209940000Y-124355000D03*
X207400000Y-124355000D03*
X204860000Y-124355000D03*
X202320000Y-124355000D03*
X199780000Y-124355000D03*
X197240000Y-124355000D03*
X194700000Y-124355000D03*
X192160000Y-124355000D03*
X189620000Y-124355000D03*
X187080000Y-124355000D03*
X184540000Y-124355000D03*
X182000000Y-124355000D03*
X179460000Y-124355000D03*
X176920000Y-124355000D03*
X174380000Y-124355000D03*
X171840000Y-124355000D03*
X169300000Y-124355000D03*
X166760000Y-124355000D03*
X164220000Y-124355000D03*
X161680000Y-124355000D03*
X159140000Y-124355000D03*
X156600000Y-124355000D03*
X154060000Y-124355000D03*
X154060000Y-139595000D03*
X156600000Y-139595000D03*
X159140000Y-139595000D03*
X161680000Y-139595000D03*
X164220000Y-139595000D03*
X166760000Y-139595000D03*
X169300000Y-139595000D03*
X171840000Y-139595000D03*
X174380000Y-139595000D03*
X176920000Y-139595000D03*
X179460000Y-139595000D03*
X182000000Y-139595000D03*
X184540000Y-139595000D03*
X187080000Y-139595000D03*
X189620000Y-139595000D03*
X192160000Y-139595000D03*
X194700000Y-139595000D03*
X197240000Y-139595000D03*
X199780000Y-139595000D03*
X202320000Y-139595000D03*
X204860000Y-139595000D03*
X207400000Y-139595000D03*
X209940000Y-139595000D03*
X212480000Y-139595000D03*
X209940000Y-137055000D03*
X166760000Y-126895000D03*
X166760000Y-129435000D03*
X166760000Y-131975000D03*
X166760000Y-134515000D03*
X166760000Y-137055000D03*
D21*
X206180800Y-127405800D03*
D24*
X203640800Y-127405800D03*
X201100800Y-127405800D03*
X198560800Y-127405800D03*
X196020800Y-127405800D03*
D25*
X199510000Y-137156600D03*
D26*
X199510000Y-135156600D03*
X199510000Y-133156600D03*
X197510000Y-133156600D03*
X197510000Y-135156600D03*
X197510000Y-137156600D03*
X211750000Y-133245000D03*
X211750000Y-130705000D03*
%TD*%
D10*
%TO.C,J49*%
X163625000Y-71670000D03*
D11*
X158625000Y-71670000D03*
%TD*%
D10*
%TO.C,J15*%
X70875000Y-180315000D03*
D11*
X70875000Y-185315000D03*
X70875000Y-190315000D03*
X70875000Y-195315000D03*
%TD*%
D16*
%TO.C,D1*%
X269035000Y-40535000D03*
D17*
X269035000Y-43075000D03*
%TD*%
D16*
%TO.C,D18*%
X273440000Y-158640000D03*
D17*
X273440000Y-161180000D03*
%TD*%
D16*
%TO.C,D31*%
X348370000Y-158640000D03*
D17*
X348370000Y-161180000D03*
%TD*%
D10*
%TO.C,J61*%
X307610000Y-138980000D03*
D11*
X302610000Y-138980000D03*
%TD*%
D10*
%TO.C,J41*%
X72780000Y-71650000D03*
D11*
X67780000Y-71650000D03*
%TD*%
D16*
%TO.C,D38*%
X184540000Y-215402500D03*
D17*
X184540000Y-212862500D03*
%TD*%
D12*
%TO.C,J69*%
X145250000Y-248180000D03*
D13*
X150250000Y-248180000D03*
X155250000Y-248180000D03*
%TD*%
D16*
%TO.C,D12*%
X331265000Y-40535000D03*
D17*
X331265000Y-43075000D03*
%TD*%
D16*
%TO.C,D5*%
X291260000Y-40535000D03*
D17*
X291260000Y-43075000D03*
%TD*%
D16*
%TO.C,D25*%
X314080000Y-158640000D03*
D17*
X314080000Y-161180000D03*
%TD*%
D16*
%TO.C,D4*%
X286180000Y-40530000D03*
D17*
X286180000Y-43070000D03*
%TD*%
D14*
%TO.C,J8*%
X212480000Y-117370000D03*
D15*
X209940000Y-117370000D03*
X207400000Y-117370000D03*
X204860000Y-117370000D03*
X202320000Y-117370000D03*
X199780000Y-117370000D03*
X197240000Y-117370000D03*
X194700000Y-117370000D03*
X192160000Y-117370000D03*
X189620000Y-117370000D03*
X187080000Y-117370000D03*
X184540000Y-117370000D03*
X182000000Y-117370000D03*
X179460000Y-117370000D03*
X176920000Y-117370000D03*
X174380000Y-117370000D03*
X171840000Y-117370000D03*
X169300000Y-117370000D03*
X166760000Y-117370000D03*
X164220000Y-117370000D03*
X161680000Y-117370000D03*
X159140000Y-117370000D03*
X156600000Y-117370000D03*
X154060000Y-117370000D03*
%TD*%
D12*
%TO.C,J68*%
X128740000Y-248180000D03*
D13*
X133740000Y-248180000D03*
X138740000Y-248180000D03*
%TD*%
D10*
%TO.C,J11*%
X98180000Y-103520000D03*
D11*
X98180000Y-108520000D03*
X98180000Y-113520000D03*
X98180000Y-118520000D03*
%TD*%
D18*
%TO.C,K5*%
X162950000Y-232462500D03*
X162950000Y-227462500D03*
X162950000Y-237462500D03*
D19*
X162950000Y-216212500D03*
D20*
X162950000Y-212462500D03*
%TD*%
D16*
%TO.C,D8*%
X308405000Y-40535000D03*
D17*
X308405000Y-43075000D03*
%TD*%
D10*
%TO.C,J51*%
X187080000Y-71650000D03*
D11*
X182080000Y-71650000D03*
%TD*%
D23*
%TO.C,SW1*%
X246770000Y-244910000D03*
X251850000Y-244910000D03*
%TD*%
D10*
%TO.C,J57*%
X261970000Y-138980000D03*
D11*
X256970000Y-138980000D03*
%TD*%
D14*
%TO.C,J9*%
X212480000Y-145945000D03*
D15*
X209940000Y-145945000D03*
X207400000Y-145945000D03*
X204860000Y-145945000D03*
X202320000Y-145945000D03*
X199780000Y-145945000D03*
X197240000Y-145945000D03*
X194700000Y-145945000D03*
X192160000Y-145945000D03*
X189620000Y-145945000D03*
X187080000Y-145945000D03*
X184540000Y-145945000D03*
X182000000Y-145945000D03*
X179460000Y-145945000D03*
X176920000Y-145945000D03*
X174380000Y-145945000D03*
X171840000Y-145945000D03*
X169300000Y-145945000D03*
X166760000Y-145945000D03*
X164220000Y-145945000D03*
X161680000Y-145945000D03*
X159140000Y-145945000D03*
X156600000Y-145945000D03*
X154060000Y-145945000D03*
%TD*%
D10*
%TO.C,J10*%
X70875000Y-154955500D03*
D11*
X70875000Y-159955500D03*
X70875000Y-164955500D03*
X70875000Y-169955500D03*
%TD*%
D10*
%TO.C,J12*%
X98180000Y-129555000D03*
D11*
X98180000Y-134555000D03*
X98180000Y-139555000D03*
X98180000Y-144555000D03*
%TD*%
D10*
%TO.C,J44*%
X107110000Y-71650000D03*
D11*
X102110000Y-71650000D03*
%TD*%
D10*
%TO.C,J45*%
X118500000Y-71650000D03*
D11*
X113500000Y-71650000D03*
%TD*%
D16*
%TO.C,D11*%
X326185000Y-40535000D03*
D17*
X326185000Y-43075000D03*
%TD*%
D16*
%TO.C,D29*%
X336940000Y-158640000D03*
D17*
X336940000Y-161180000D03*
%TD*%
D16*
%TO.C,D22*%
X296300000Y-158640000D03*
D17*
X296300000Y-161180000D03*
%TD*%
D16*
%TO.C,D24*%
X307730000Y-158640000D03*
D17*
X307730000Y-161180000D03*
%TD*%
D14*
%TO.C,J4*%
X123580000Y-164995000D03*
D15*
X126120000Y-164995000D03*
X128660000Y-164995000D03*
%TD*%
D10*
%TO.C,J36*%
X308405000Y-20215000D03*
D11*
X303405000Y-20215000D03*
%TD*%
D10*
%TO.C,J52*%
X198510000Y-71650000D03*
D11*
X193510000Y-71650000D03*
%TD*%
D10*
%TO.C,J55*%
X232800000Y-71650000D03*
D11*
X227800000Y-71650000D03*
%TD*%
D16*
%TO.C,D20*%
X284870000Y-158640000D03*
D17*
X284870000Y-161180000D03*
%TD*%
D16*
%TO.C,D7*%
X302690000Y-40535000D03*
D17*
X302690000Y-43075000D03*
%TD*%
M02*
